<?xml version="1.0" encoding="utf-8"?>
<!-- Generator: Adobe Illustrator 16.0.0, SVG Export Plug-In . SVG Version: 6.00 Build 0)  -->
<!DOCTYPE svg PUBLIC "-//W3C//DTD SVG 1.1//EN" "http://www.w3.org/Graphics/SVG/1.1/DTD/svg11.dtd">
<svg version="1.1" id="Layer_1" xmlns="http://www.w3.org/2000/svg" xmlns:xlink="http://www.w3.org/1999/xlink" x="0px" y="0px"
	 width="500px" height="500px" viewBox="0 0 500 500" enable-background="new 0 0 500 500" xml:space="preserve">
<g id="Layer_1_copy_9">
	<g>
		<g>
			<path fill="#9FAF8B" d="M242.809,275.955l-163.23-79.188c0,0-30.249-10.979-41.092,3.92
				c-10.847,14.896,21.686,25.09,21.686,25.09l162.66,70.567h19.976V275.955z"/>
			<path fill="#27140E" d="M242.809,298.797h-19.976c-0.334,0-0.671-0.072-0.977-0.206l-162.54-70.513
				c-2.715-0.861-21.406-7.153-24.923-17.806c-1.206-3.66-0.478-7.475,2.111-11.03c4.259-5.856,11.448-8.825,21.364-8.825
				c11.273,0,22.091,3.876,22.547,4.042c0.079,0.03,0.16,0.063,0.236,0.099l163.226,79.189c0.847,0.409,1.383,1.267,1.383,2.207
				v20.39C245.261,297.697,244.162,298.797,242.809,298.797z M223.341,293.889h17.013v-16.396L78.633,199.034
				c-1.149-0.399-10.95-3.71-20.764-3.71c-8.259,0-14.109,2.291-17.399,6.807c-1.665,2.287-2.125,4.448-1.417,6.603
				c2.373,7.188,16.582,13.049,21.853,14.705c0.086,0.023,0.164,0.052,0.244,0.089L223.341,293.889z"/>
		</g>
		<g>
			<path fill="#9FAF8B" d="M277.049,283.011l186.059-49.396c0,0,19.406-5.464,15.415,10.992
				c-3.998,16.45-17.694,34.489-37.671,38.404L283.328,317.51l-11.984-5.486L277.049,283.011z"/>
			<path fill="#27140E" d="M283.328,319.963c-0.352,0-0.698-0.07-1.02-0.219l-11.99-5.49c-1.027-0.472-1.604-1.593-1.383-2.706
				l5.707-29.007c0.183-0.923,0.873-1.658,1.78-1.898l186.055-49.397c0.105-0.029,3.43-0.954,7.18-0.954
				c4.53,0,7.848,1.301,9.864,3.863c2.056,2.618,2.521,6.329,1.38,11.029c-3.985,16.422-18.075,36.018-39.579,40.238
				l-157.469,34.485C283.684,319.945,283.507,319.963,283.328,319.963z M274.127,310.596l9.479,4.344l156.72-34.323
				c19.436-3.813,32.176-21.642,35.809-36.587c0.767-3.165,0.606-5.465-0.47-6.842c-1.292-1.642-3.979-1.986-6.007-1.986
				c-3.052,0-5.858,0.771-5.888,0.778l-184.605,49.009L274.127,310.596z"/>
		</g>
		<g>
			<path fill="#9FAF8B" d="M225.684,325.346l-7.987,69.006c0,0,0,10.976,10.844,9.405c0,0,16.55,5.488,18.26-5.487
				c4.568-14.9,19.406-65.864,19.406-65.864L242.81,317.51L225.684,325.346z"/>
			<path fill="#27140E" d="M237.022,407.583c-3.776,0-7.348-0.926-8.698-1.323c-0.622,0.073-1.228,0.106-1.811,0.106
				c0,0,0,0-0.003,0c-8.917,0-11.27-7.859-11.27-12.017c0-0.093,0.006-0.191,0.017-0.277l7.99-69.01
				c0.099-0.854,0.634-1.592,1.416-1.945l17.121-7.836c0.755-0.35,1.636-0.287,2.341,0.16l23.396,14.896
				c0.92,0.589,1.342,1.71,1.041,2.753c-0.148,0.51-14.793,50.789-19.368,65.735C248.237,404.473,243.92,407.583,237.022,407.583z
				 M228.537,401.309c0.261,0,0.522,0.039,0.771,0.125c0.04,0.006,3.841,1.244,7.715,1.244c6.606,0,7.149-3.48,7.353-4.785
				c0.02-0.119,0.045-0.226,0.081-0.345c4.025-13.141,16.22-54.938,18.877-64.058l-20.717-13.19l-14.652,6.702l-7.815,67.468
				c0.041,1.417,0.557,6.99,6.362,6.99c0.003,0,0.003,0,0.003,0c0.517,0,1.076-0.046,1.672-0.133
				C228.306,401.314,228.421,401.309,228.537,401.309z"/>
		</g>
	</g>
	<g>
		<path fill="#27140E" d="M226.993,396.945c-0.118,0-0.243-0.006-0.369-0.026c-1.338-0.204-2.261-1.455-2.061-2.793l7.247-47.78
			c0.204-1.338,1.466-2.271,2.793-2.061c1.341,0.199,2.26,1.451,2.062,2.794l-7.248,47.78
			C229.234,396.073,228.186,396.945,226.993,396.945z"/>
	</g>
	<g>
		<rect x="248.899" y="206.959" fill="#FBC59A" width="11.604" height="51.225"/>
		<path fill="#27140E" d="M260.503,260.641h-11.604c-1.357,0-2.453-1.1-2.453-2.457v-51.225c0-1.355,1.096-2.454,2.453-2.454h11.604
			c1.354,0,2.453,1.099,2.453,2.454v51.225C262.956,259.542,261.855,260.641,260.503,260.641z M251.354,255.732h6.693v-46.32h-6.693
			V255.732z"/>
	</g>
	<g>
		<path fill="#345751" d="M254.984,284.582c0,0-12.176-0.785-16.552-1.57c-1.731-32.476,16.552-31.887,16.552-31.887h0.951
			c0,0,18.276-0.589,16.545,31.887c-4.369,0.785-16.545,1.57-16.545,1.57H254.984z"/>
		<path fill="#27140E" d="M255.938,287.037h-0.951c-0.662-0.04-12.527-0.809-16.985-1.607c-1.119-0.203-1.96-1.148-2.017-2.285
			c-0.715-13.36,1.759-23.123,7.342-29.011c4.929-5.197,10.521-5.461,11.594-5.461h1.018h0.004c1.145,0,6.734,0.271,11.649,5.458
			c5.583,5.891,8.058,15.652,7.349,29.014c-0.063,1.137-0.897,2.082-2.02,2.285c-4.462,0.801-16.324,1.567-16.824,1.602
			C256.043,287.037,255.988,287.037,255.938,287.037z M240.8,280.883c5.11,0.651,14.238,1.244,14.345,1.252l0.698-0.008
			c0.857-0.057,9.4-0.621,14.272-1.244c0.302-10.79-1.791-18.846-6.088-23.374c-3.68-3.883-7.854-3.93-8.029-3.93h-1.014h-0.004
			c-0.293,0-4.434,0.069-8.096,3.93C242.594,262.038,240.502,270.093,240.8,280.883z"/>
	</g>
	<g>
		<path fill="#AF764A" d="M222.833,312.643c0,0-7.414-33.199,19.976-38.567l29.794,0.229c0,0,18.715,2.881,16.432,38.338
			c-8.557,5.371-27.393,6.176-27.393,6.176L222.833,312.643z"/>
		<path fill="#27140E" d="M261.643,321.273c-0.129,0-0.26-0.01-0.388-0.029l-38.809-6.184c-0.993-0.158-1.787-0.903-2.01-1.887
			c-0.161-0.719-3.859-17.843,4.211-30.193c3.902-5.971,9.85-9.775,17.684-11.314c0.167-0.029,0.315-0.044,0.497-0.044l29.793,0.228
			c0.115,0.002,0.234,0.012,0.354,0.028c0.854,0.136,20.912,3.653,18.508,40.923c-0.051,0.784-0.477,1.499-1.145,1.917
			c-9.003,5.656-27.797,6.523-28.591,6.558C261.707,321.273,261.675,321.273,261.643,321.273z M224.942,310.49l36.828,5.865
			c2.076-0.109,17.086-1.049,24.896-5.18c1.521-30.058-12.765-34.078-14.302-34.42l-29.323-0.227
			c-6.361,1.299-11.16,4.367-14.276,9.115C223.142,294.243,224.29,306.197,224.942,310.49z"/>
	</g>
	<g>
		<path fill="none" stroke="#27140E" stroke-width="6.7786" stroke-linejoin="round" stroke-miterlimit="10" d="M250.418,216.629"/>
	</g>
	<g>
		<path fill="#345751" d="M240.555,204.607l-6.689-8.362c0,0-6.848-10.196,1.715-20.91c8.56-10.716,18.926-9.147,18.926-9.147
			s10.099-1.569,18.657,9.147c8.562,10.714,1.714,20.91,1.714,20.91l-6.69,8.362"/>
		<path fill="#27140E" d="M270.102,206.14l-3.828-3.067l6.688-8.362c0.111-0.182,5.571-8.729-1.714-17.846
			c-7.496-9.379-16.022-8.307-16.38-8.25c-0.234,0.033-0.494,0.035-0.727-0.001c-0.356-0.044-9.142-1.141-16.646,8.251
			c-7.289,9.117-1.824,17.664-1.585,18.021l6.56,8.188l-3.833,3.065l-6.689-8.363c-2.836-4.208-5.947-14.387,1.712-23.973
			c8.52-10.661,18.753-10.278,20.846-10.087c2.075-0.204,12.074-0.556,20.574,10.087c7.662,9.586,4.548,19.765,1.837,23.81
			L270.102,206.14z"/>
	</g>
	<g>
		<path fill="#FBC59A" d="M289.034,312.805c0,12.561-14.821,22.741-33.099,22.741c-18.284,0-33.104-10.183-33.104-22.741
			c0-12.556,14.819-22.736,33.104-22.736C274.213,290.068,289.034,300.25,289.034,312.805z"/>
		<path fill="#27140E" d="M255.938,337.997c-19.609,0-35.557-11.298-35.557-25.192c0-13.888,15.946-25.188,35.557-25.188
			c19.604,0,35.555,11.301,35.555,25.188C291.491,326.699,275.54,337.997,255.938,337.997z M255.938,292.523
			c-16.901,0-30.65,9.101-30.65,20.281c0,11.188,13.749,20.285,30.65,20.285c16.896,0,30.646-9.099,30.646-20.285
			C286.582,301.624,272.833,292.523,255.938,292.523z"/>
	</g>
	<g>
		<path fill="#9FAF8B" d="M268.49,203.822c0,7.074-6.26,12.807-13.984,12.807c-7.718,0-13.98-5.733-13.98-12.807
			c0-7.07,6.263-12.805,13.98-12.805C262.23,191.017,268.49,196.751,268.49,203.822z"/>
		<path fill="#27140E" d="M254.506,219.084c-9.062,0-16.434-6.846-16.434-15.263c0-8.413,7.371-15.258,16.434-15.258
			c9.062,0,16.439,6.845,16.439,15.258C270.945,212.238,263.568,219.084,254.506,219.084z M254.506,193.471
			c-6.355,0-11.528,4.642-11.528,10.351c0,5.709,5.173,10.354,11.528,10.354c6.362,0,11.532-4.645,11.532-10.354
			C266.038,198.113,260.868,193.471,254.506,193.471z"/>
	</g>
</g>
</svg>
